HIERARCHY
ROOT hip
{
  OFFSET 0 0 0
  CHANNELS 6 Xposition Yposition Zposition Zrotation Yrotation Xrotation
  JOINT abdomen
  {
    OFFSET 0 20.6881 -0.73152
    CHANNELS 3 Zrotation Xrotation Yrotation
    JOINT chest
    {
      OFFSET 0 11.7043 -0.48768
      CHANNELS 3 Zrotation Xrotation Yrotation
      JOINT neck
      {
        OFFSET 0 22.1894 -2.19456
        CHANNELS 3 Zrotation Xrotation Yrotation
        JOINT head
        {
          OFFSET -0.24384 7.07133 1.2192
          CHANNELS 3 Zrotation Xrotation Yrotation
          JOINT leftEye
          {
            OFFSET 4.14528 8.04674 8.04672
            CHANNELS 3 Zrotation Xrotation Yrotation
            End Site
            {
              OFFSET 1 0 0
            }
          }
          JOINT rightEye
          {
            OFFSET -3.6576 8.04674 8.04672
            CHANNELS 3 Zrotation Xrotation Yrotation
            End Site
            {
              OFFSET 1 0 0
            }
          }
        }
      }
      JOINT rCollar
      {
        OFFSET -2.68224 19.2634 -4.8768
        CHANNELS 3 Zrotation Xrotation Yrotation
        JOINT rShldr
        {
          OFFSET -8.77824 -1.95073 1.46304
          CHANNELS 3 Zrotation Xrotation Yrotation
          JOINT rForeArm
          {
            OFFSET -28.1742 -1.7115 0.48768
            CHANNELS 3 Zrotation Xrotation Yrotation
            JOINT rHand
            {
              OFFSET -22.5879 0.773209 7.07136
              CHANNELS 3 Zrotation Xrotation Yrotation
              JOINT rThumb1
              {
                OFFSET -1.2192 -0.487915 3.41376
                CHANNELS 3 Zrotation Xrotation Yrotation
                JOINT rThumb2
                {
                  OFFSET -3.37035 -0.52449 3.41376
                  CHANNELS 3 Zrotation Xrotation Yrotation
                  End Site
                  {
                    OFFSET -1.78271 -1.18214 1.43049
                  }
                }
              }
              JOINT rIndex1
              {
                OFFSET -7.75947 0.938293 5.60832
                CHANNELS 3 Zrotation Xrotation Yrotation
                JOINT rIndex2
                {
                  OFFSET -2.54057 -0.884171 1.56538
                  CHANNELS 3 Zrotation Xrotation Yrotation
                  End Site
                  {
                    OFFSET -1.62519 -0.234802 1.16502
                  }
                }
              }
              JOINT rMid1
              {
                OFFSET -8.24714 1.18213 3.41376
                CHANNELS 3 Zrotation Xrotation Yrotation
                JOINT rMid2
                {
                  OFFSET -3.10165 -0.590103 1.0647
                  CHANNELS 3 Zrotation Xrotation Yrotation
                  End Site
                  {
                    OFFSET -2.48547 -0.328903 0.83742
                  }
                }
              }
              JOINT rRing1
              {
                OFFSET -8.82822 0.546677 1.51678
                CHANNELS 3 Zrotation Xrotation Yrotation
                JOINT rRing2
                {
                  OFFSET -2.60934 -0.819778 -0.0198488
                  CHANNELS 3 Zrotation Xrotation Yrotation
                  End Site
                  {
                    OFFSET -2.33842 -0.294052 0.168128
                  }
                }
              }
              JOINT rPinky1
              {
                OFFSET -8.27202 -0.0477905 -0.4584
                CHANNELS 3 Zrotation Xrotation Yrotation
                JOINT rPinky2
                {
                  OFFSET -1.82734 -0.647385 -0.700984
                  CHANNELS 3 Zrotation Xrotation Yrotation
                  End Site
                  {
                    OFFSET -1.69225 -0.51767 -0.607171
                  }
                }
              }
            }
          }
        }
      }
      JOINT lCollar
      {
        OFFSET 2.68224 19.2634 -4.8768
        CHANNELS 3 Zrotation Xrotation Yrotation
        JOINT lShldr
        {
          OFFSET 8.77824 -1.95073 1.46304
          CHANNELS 3 Zrotation Xrotation Yrotation
          JOINT lForeArm
          {
            OFFSET 28.1742 -1.7115 0.48768
            CHANNELS 3 Zrotation Xrotation Yrotation
            JOINT lHand
            {
              OFFSET 22.5879 0.773209 7.07136
              CHANNELS 3 Zrotation Xrotation Yrotation
              JOINT lThumb1
              {
                OFFSET 1.2192 -0.487915 3.41376
                CHANNELS 3 Zrotation Xrotation Yrotation
                JOINT lThumb2
                {
                  OFFSET 3.37035 -0.52449 3.41376
                  CHANNELS 3 Zrotation Xrotation Yrotation
                  End Site
                  {
                    OFFSET 1.78271 -1.18214 1.43049
                  }
                }
              }
              JOINT lIndex1
              {
                OFFSET 7.75947 0.938293 5.60832
                CHANNELS 3 Zrotation Xrotation Yrotation
                JOINT lIndex2
                {
                  OFFSET 2.54057 -0.884171 1.56538
                  CHANNELS 3 Zrotation Xrotation Yrotation
                  End Site
                  {
                    OFFSET 1.62519 -0.234802 1.16502
                  }
                }
              }
              JOINT lMid1
              {
                OFFSET 8.24714 1.18213 3.41376
                CHANNELS 3 Zrotation Xrotation Yrotation
                JOINT lMid2
                {
                  OFFSET 3.10165 -0.590103 1.0647
                  CHANNELS 3 Zrotation Xrotation Yrotation
                  End Site
                  {
                    OFFSET 2.48547 -0.328903 0.83742
                  }
                }
              }
              JOINT lRing1
              {
                OFFSET 8.82822 0.546677 1.51678
                CHANNELS 3 Zrotation Xrotation Yrotation
                JOINT lRing2
                {
                  OFFSET 2.60934 -0.819778 -0.0198488
                  CHANNELS 3 Zrotation Xrotation Yrotation
                  End Site
                  {
                    OFFSET 2.33842 -0.294052 0.168128
                  }
                }
              }
              JOINT lPinky1
              {
                OFFSET 8.27202 -0.0477905 -0.4584
                CHANNELS 3 Zrotation Xrotation Yrotation
                JOINT lPinky2
                {
                  OFFSET 1.82734 -0.647385 -0.700984
                  CHANNELS 3 Zrotation Xrotation Yrotation
                  End Site
                  {
                    OFFSET 1.69225 -0.51767 -0.607171
                  }
                }
              }
            }
          }
        }
      }
    }
  }
  JOINT rButtock
  {
    OFFSET -8.77824 4.35084 1.2192
    CHANNELS 3 Zrotation Xrotation Yrotation
    JOINT rThigh
    {
      OFFSET 0 -1.70687 -2.19456
      CHANNELS 3 Zrotation Xrotation Yrotation
      JOINT rShin
      {
        OFFSET 0 -36.8199 0.73152
        CHANNELS 3 Zrotation Xrotation Yrotation
        JOINT rFoot
        {
          OFFSET 0.73152 -45.1104 -5.12064
          CHANNELS 3 Zrotation Xrotation Yrotation
          End Site
          {
            OFFSET -1.1221 -3.69964 12.103
          }
        }
      }
    }
  }
  JOINT lButtock
  {
    OFFSET 8.77824 4.35084 1.2192
    CHANNELS 3 Zrotation Xrotation Yrotation
    JOINT lThigh
    {
      OFFSET 0 -1.70687 -2.19456
      CHANNELS 3 Zrotation Xrotation Yrotation
      JOINT lShin
      {
        OFFSET 0 -36.8199 0.73152
        CHANNELS 3 Zrotation Xrotation Yrotation
        JOINT lFoot
        {
          OFFSET -0.73152 -45.1104 -5.12064
          CHANNELS 3 Zrotation Xrotation Yrotation
          End Site
          {
            OFFSET 1.1221 -3.69964 12.103
          }
        }
      }
    }
  }
}
MOTION
Frames:	6
Frame Time:	0.00833333
36.0734 83.4633 -13.7793 8.0061 -49.6056 -7.9615 -8.82543 11.4169 2.29449 2.06616 -4.0262 0.341308 -10.2659 -2.93149 -3.45516 11.3012 12.9732 -5.32956 -0.0 0.0 0.0 -0.0 0.0 0.0 1.26477e-14 -1.58846e-14 4.505e-13 78.1222 22.1434 -4.2839 -15.7932 -8.49654 29.2371 -0.00256404 1.46739 0.206271 -1.67359e-09 1.52203e-09 1.75743e-09 -2.88904e-09 2.63794e-09 3.04747e-09 -1.67359e-09 1.52203e-09 1.75742e-09 7.73091 5.47488 0.417314 -1.67359e-09 1.52203e-09 1.75742e-09 2.90554 0.965183 0.102902 -1.67358e-09 1.52203e-09 1.75742e-09 10.2786 0.731801 0.0259123 -1.6736e-09 1.52203e-09 1.75743e-09 2.22167 -0.733487 -0.20892 1.25852e-14 -1.58892e-14 4.50178e-13 -76.3729 24.5105 3.81255 17.7702 -10.4416 -33.5066 0.00800668 2.5553 -0.359365 -1.52133e-09 3.28566e-09 5.76935e-10 -2.62957e-09 5.69754e-09 1.00554e-09 -1.52133e-09 3.28566e-09 5.76937e-10 -7.73091 5.47488 -0.417314 -1.52133e-09 3.28568e-09 5.76931e-10 -2.90554 0.965183 -0.102902 -1.52134e-09 3.28566e-09 5.76933e-10 -10.2786 0.731801 -0.0259123 -1.52132e-09 3.28566e-09 5.76927e-10 -2.22167 -0.733487 0.20892 -2.03217e-16 0.0 -3.88251e-19 -9.97439 -27.9494 -6.60804 -1.49355 65.0239 1.82385 -0.529505 -1.63279 -0.515095 2.03217e-16 0.0 3.88251e-19 -10.0944 -13.6814 1.31464 0.0315108 24.6178 -0.189875 -1.18376 -6.298 -11.2167
35.5299 83.3301 -13.1957 8.4445 -49.3295 -8.3225 -8.87113 11.426 2.09577 1.97223 -3.89786 0.286517 -10.2324 -2.97092 -3.47978 11.4448 12.7498 -5.36686 -0.0 0.0 0.0 -0.0 0.0 0.0 1.00234e-13 1.55055e-13 7.01213e-14 78.1032 22.3665 -4.08688 -15.8235 -8.52423 29.3009 -0.00226578 1.35904 0.191037 -8.27978e-10 -1.65666e-10 3.24251e-10 -1.42881e-09 -2.85095e-10 5.63809e-10 -8.27976e-10 -1.65668e-10 3.24242e-10 7.73091 5.47488 0.417314 -8.27975e-10 -1.65665e-10 3.24245e-10 2.90554 0.965183 0.102902 -8.27973e-10 -1.65672e-10 3.24245e-10 10.2786 0.731801 0.0259123 -8.27987e-10 -1.65668e-10 3.24248e-10 2.22167 -0.733487 -0.20892 1.00148e-13 1.5505e-13 6.97734e-14 -75.833 24.7838 3.36794 17.876 -10.5539 -33.7426 0.00717097 2.41713 -0.339909 -5.58388e-10 -1.9946e-10 -4.53703e-10 -9.65316e-10 -3.44317e-10 -7.83646e-10 -5.5839e-10 -1.99459e-10 -4.537e-10 -7.73091 5.47488 -0.417314 -5.58386e-10 -1.99443e-10 -4.53706e-10 -2.90554 0.965183 -0.102902 -5.58397e-10 -1.9946e-10 -4.53704e-10 -10.2786 0.731801 -0.0259123 -5.5838e-10 -1.9946e-10 -4.53709e-10 -2.22167 -0.733487 0.20892 -2.03217e-16 0.0 -3.88251e-19 -10.0574 -28.7461 -6.65704 -1.39737 64.0169 1.74188 -0.517416 -2.39943 -0.348855 2.03217e-16 0.0 3.88251e-19 -10.3503 -13.4062 0.971271 0.0377233 25.2426 -0.240261 -1.18413 -6.52758 -10.8575
34.9675 83.1389 -12.6514 8.5842 -49.0135 -8.4697 -8.88224 11.4563 1.87618 1.98529 -3.83187 0.231224 -10.2265 -3.04646 -3.50015 11.5157 12.6404 -5.38653 -0.0 0.0 0.0 -0.0 0.0 0.0 9.74999e-14 1.47375e-13 -6.06212e-14 78.0358 22.3107 -3.91814 -15.8175 -8.51868 29.2883 -0.00268367 1.56628 0.220171 -2.85339e-10 -6.66526e-10 3.26983e-11 -4.90984e-10 -1.15286e-09 5.71909e-11 -2.85337e-10 -6.66529e-10 3.26916e-11 7.73091 5.47488 0.417314 -2.85337e-10 -6.66526e-10 3.26935e-11 2.90554 0.965183 0.102902 -2.85336e-10 -6.66532e-10 3.26948e-11 10.2786 0.731801 0.0259123 -2.85349e-10 -6.66528e-10 3.26995e-11 2.22167 -0.733487 -0.20892 9.73729e-14 1.47374e-13 -6.09593e-14 -75.4367 24.9698 2.99033 17.9829 -10.6683 -33.9815 0.00640665 2.28411 -0.321183 -1.09907e-10 -9.42598e-10 -6.45153e-10 -1.90427e-10 -1.63432e-09 -1.11716e-09 -1.0991e-10 -9.42594e-10 -6.45147e-10 -7.73091 5.47488 -0.417314 -1.09905e-10 -9.42583e-10 -6.45155e-10 -2.90554 0.965183 -0.102902 -1.09915e-10 -9.42597e-10 -6.45153e-10 -10.2786 0.731801 -0.0259123 -1.09901e-10 -9.42597e-10 -6.45159e-10 -2.22167 -0.733487 0.20892 -2.03217e-16 0.0 -3.88251e-19 -10.0726 -29.5193 -6.68199 -1.30176 62.9186 1.65937 -0.533291 -3.16713 -0.362916 2.03217e-16 0.0 3.88251e-19 -10.5518 -13.0205 0.69577 0.0430574 25.7165 -0.287137 -1.20444 -6.90627 -10.5143
34.3564 82.977 -12.0981 8.4692 -48.7856 -8.4883 -8.87311 11.4965 1.64496 2.05614 -3.79299 0.175401 -10.236 -3.15154 -3.51825 11.5487 12.6 -5.3957 -0.0 0.0 0.0 -0.0 0.0 0.0 4.42724e-14 3.88596e-14 -7.85603e-14 77.9441 22.0811 -3.75946 -15.785 -8.48892 29.2199 -0.00421469 1.98001 0.278362 2.08883e-10 -6.46648e-10 2.86217e-10 3.63822e-10 -1.11896e-09 4.9413e-10 2.08885e-10 -6.46649e-10 2.86214e-10 7.73091 5.47488 0.417314 2.08885e-10 -6.46647e-10 2.86215e-10 2.90554 0.965183 0.102902 2.08886e-10 -6.46651e-10 2.86219e-10 10.2786 0.731801 0.0259123 2.08873e-10 -6.46648e-10 2.86226e-10 2.22167 -0.733487 -0.20892 4.40902e-14 3.8865e-14 -7.88678e-14 -75.1189 25.1014 2.64764 18.0886 -10.7824 -34.2184 0.0057002 2.15665 -0.303241 1.55962e-10 -4.0389e-10 -4.43627e-10 2.68606e-10 -7.03463e-10 -7.69315e-10 1.5596e-10 -4.03883e-10 -4.43616e-10 -7.73091 5.47488 -0.417314 1.55964e-10 -4.03879e-10 -4.43626e-10 -2.90554 0.965183 -0.102902 1.55956e-10 -4.03889e-10 -4.43625e-10 -10.2786 0.731801 -0.0259123 1.55967e-10 -4.03889e-10 -4.43632e-10 -2.22167 -0.733487 0.20892 -2.03217e-16 0.0 -3.88251e-19 -10.0478 -30.2582 -6.68426 -1.20629 61.7133 1.57571 -0.570971 -3.90059 -0.490799 2.03217e-16 0.0 3.88251e-19 -10.725 -12.5479 0.445484 0.0479655 26.0701 -0.331011 -1.22789 -7.36311 -10.1647
33.7277 82.8874 -11.5296 8.5124 -48.6651 -8.6261 -8.8678 11.5397 1.42526 2.17404 -3.78122 0.124807 -10.2587 -3.25019 -3.53488 11.5654 12.5848 -5.40055 -0.0 0.0 0.0 -0.0 0.0 0.0 -2.22995e-14 -1.02803e-13 -8.41795e-14 77.8363 21.8223 -3.63152 -15.7454 -8.45272 29.1367 -0.00679994 2.42234 0.340627 7.56581e-10 -6.01165e-10 6.00148e-10 1.311e-09 -1.04078e-09 1.0353e-09 7.56583e-10 -6.01166e-10 6.0015e-10 7.73091 5.47488 0.417314 7.56583e-10 -6.01165e-10 6.0015e-10 2.90554 0.965183 0.102902 7.56584e-10 -6.01167e-10 6.00156e-10 10.2786 0.731801 0.0259123 7.56572e-10 -6.01163e-10 6.00166e-10 2.22167 -0.733487 -0.20892 -2.25357e-14 -1.02791e-13 -8.44516e-14 -74.8598 25.2159 2.33495 18.1867 -10.8891 -34.4396 0.00509762 2.04089 -0.28695 4.73861e-10 3.48903e-10 -1.59911e-10 8.17698e-10 5.97594e-10 -2.79246e-10 4.73859e-10 3.48914e-10 -1.59895e-10 -7.73091 5.47488 -0.417314 4.73862e-10 3.4891e-10 -1.59907e-10 -2.90554 0.965183 -0.102902 4.73856e-10 3.48906e-10 -1.59907e-10 -10.2786 0.731801 -0.0259123 4.73863e-10 3.48906e-10 -1.59915e-10 -2.22167 -0.733487 0.20892 -2.03217e-16 0.0 -3.88251e-19 -9.98628 -30.9402 -6.65003 -1.11013 60.3723 1.48975 -0.628011 -4.54279 -0.710204 2.03217e-16 0.0 3.88251e-19 -10.859 -11.999 0.248067 0.0519193 26.2981 -0.371021 -1.25783 -7.86351 -9.85245
33.126 82.8337 -10.9714 8.6515 -48.5395 -8.7785 -8.89059 11.5791 1.24027 2.32825 -3.79655 0.0852039 -10.2926 -3.30645 -3.55082 11.5872 12.5507 -5.40725 -0.0 0.0 0.0 -0.0 0.0 0.0 -6.5067e-14 -2.09924e-13 -1.77962e-13 77.7188 21.6788 -3.55415 -15.7182 -8.42793 29.0798 -0.00905166 2.71539 0.381913 1.45965e-09 -1.02521e-09 4.89834e-10 2.52593e-09 -1.77572e-09 8.41358e-10 1.45965e-09 -1.02521e-09 4.89837e-10 7.73091 5.47488 0.417314 1.45965e-09 -1.02521e-09 4.89837e-10 2.90554 0.965183 0.102902 1.45965e-09 -1.02521e-09 4.89845e-10 10.2786 0.731801 0.0259123 1.45964e-09 -1.02521e-09 4.89856e-10 2.22167 -0.733487 -0.20892 -6.53401e-14 -2.0991e-13 -1.7821e-13 -74.639 25.3507 2.0469 18.2711 -10.9812 -34.6312 0.00463243 1.943 -0.273176 1.07843e-09 2.48024e-10 -1.0479e-10 1.86277e-09 4.18192e-10 -1.86086e-10 1.07843e-09 2.48037e-10 -1.04771e-10 -7.73091 5.47488 -0.417314 1.07843e-09 2.48028e-10 -1.04783e-10 -2.90554 0.965183 -0.102902 1.07842e-09 2.48028e-10 -1.04785e-10 -10.2786 0.731801 -0.0259123 1.07843e-09 2.48028e-10 -1.04793e-10 -2.22167 -0.733487 0.20892 -2.03217e-16 0.0 -3.88251e-19 -9.89125 -31.5425 -6.5651 -1.01304 58.867 1.40092 -0.699363 -5.03672 -0.998674 2.03217e-16 0.0 3.88251e-19 -10.9446 -11.3848 0.130821 0.0544111 26.3954 -0.406311 -1.29999 -8.37259 -9.62131
